<svg width="169" height="78" viewBox="0 0 169 78" fill="none" xmlns="http://www.w3.org/2000/svg">
<path d="M72.65 21V58H64.1V21H72.65Z" fill="white"/>
<path d="M91.5461 58.4C88.8127 58.4 86.3461 57.8167 84.1461 56.65C81.9794 55.4833 80.2627 53.8167 78.9961 51.65C77.7627 49.4833 77.1461 46.95 77.1461 44.05C77.1461 41.1833 77.7794 38.6667 79.0461 36.5C80.3127 34.3 82.0461 32.6167 84.2461 31.45C86.4461 30.2833 88.9127 29.7 91.6461 29.7C94.3794 29.7 96.8461 30.2833 99.0461 31.45C101.246 32.6167 102.979 34.3 104.246 36.5C105.513 38.6667 106.146 41.1833 106.146 44.05C106.146 46.9167 105.496 49.45 104.196 51.65C102.929 53.8167 101.179 55.4833 98.9461 56.65C96.7461 57.8167 94.2794 58.4 91.5461 58.4ZM91.5461 51C93.1794 51 94.5627 50.4 95.6961 49.2C96.8627 48 97.4461 46.2833 97.4461 44.05C97.4461 41.8167 96.8794 40.1 95.7461 38.9C94.6461 37.7 93.2794 37.1 91.6461 37.1C89.9794 37.1 88.5961 37.7 87.4961 38.9C86.3961 40.0667 85.8461 41.7833 85.8461 44.05C85.8461 46.2833 86.3794 48 87.4461 49.2C88.5461 50.4 89.9127 51 91.5461 51Z" fill="white"/>
<path d="M108.982 44.05C108.982 41.15 109.565 38.6167 110.732 36.45C111.932 34.2833 113.582 32.6167 115.682 31.45C117.815 30.2833 120.249 29.7 122.982 29.7C126.482 29.7 129.399 30.6167 131.732 32.45C134.099 34.2833 135.649 36.8667 136.382 40.2H127.282C126.515 38.0667 125.032 37 122.832 37C121.265 37 120.015 37.6167 119.082 38.85C118.149 40.05 117.682 41.7833 117.682 44.05C117.682 46.3167 118.149 48.0667 119.082 49.3C120.015 50.5 121.265 51.1 122.832 51.1C125.032 51.1 126.515 50.0333 127.282 47.9H136.382C135.649 51.1667 134.099 53.7333 131.732 55.6C129.365 57.4667 126.449 58.4 122.982 58.4C120.249 58.4 117.815 57.8167 115.682 56.65C113.582 55.4833 111.932 53.8167 110.732 51.65C109.565 49.4833 108.982 46.95 108.982 44.05Z" fill="white"/>
<path d="M158.005 58L149.505 46.3V58H140.955V21H149.505V41.45L157.955 30.1H168.505L156.905 44.1L168.605 58H158.005Z" fill="white"/>
<path d="M66.5772 11.4228C61.1229 5.96858 54.1738 2.2542 46.6085 0.749373C39.0433 -0.75545 31.2017 0.0168817 24.0753 2.9687C16.949 5.92052 10.8581 10.9192 6.57268 17.3328C2.28731 23.7463 -1.1647e-06 31.2865 0 39C1.1647e-06 46.7135 2.28731 54.2537 6.57269 60.6672C10.8581 67.0808 16.949 72.0795 24.0754 75.0313C31.2017 77.9831 39.0433 78.7554 46.6085 77.2506C54.1738 75.7458 61.1229 72.0314 66.5772 66.5772L58.7362 58.7361C54.8327 62.6396 49.8594 65.2979 44.4452 66.3748C39.031 67.4518 33.419 66.899 28.3189 64.7865C23.2188 62.674 18.8597 59.0966 15.7927 54.5066C12.7258 49.9166 11.0889 44.5203 11.0889 39C11.0889 33.4797 12.7258 28.0834 15.7927 23.4934C18.8597 18.9034 23.2188 15.326 28.3189 13.2135C33.419 11.101 39.031 10.5482 44.4452 11.6252C49.8594 12.7021 54.8327 15.3604 58.7361 19.2638L66.5772 11.4228Z" fill="#FFE298"/>
<path d="M112 63.5C112 62.61 111.736 61.74 111.242 60.9999C110.747 60.2599 110.044 59.6831 109.222 59.3425C108.4 59.0019 107.495 58.9128 106.622 59.0865C105.749 59.2601 104.947 59.6887 104.318 60.318C103.689 60.9474 103.26 61.7492 103.086 62.6221C102.913 63.495 103.002 64.3998 103.343 65.2221C103.683 66.0443 104.26 66.7471 105 67.2416C105.74 67.7361 106.61 68 107.5 68L107.5 63.5H112Z" fill="#FFE298"/>
</svg>
